<?xml version="1.0" encoding="UTF-8"?>
<svg id="Capa_1" data-name="Capa 1" xmlns="http://www.w3.org/2000/svg" viewBox="0 0 16 16">
  <defs>
    <style>
      .cls-1 {
        fill: #fff;
      }

      .cls-2 {
        fill: #f3aac4;
      }
    </style>
  </defs>
  <path d="M3.52,7.71c.33-.18.66-.34.98-.5-1.49-.9-2.56-.64-3.87-.32-.1.02-.19.04-.29.06-.05.34-.07.69-.07,1.04,0,.05,0,.1,0,.14.14-.03.27-.07.41-.11,1.08-.33,1.96-.51,2.84-.32"/>
  <path d="M8,.27C4.6.27,1.71,2.46.68,5.51c1.75-.4,3.25-.45,5.24,1.06,1.05-.44,1.76-.67,1.76-.67l-.61,1.73.16.16h0s0,0,0,0l3.92-1.7c.17-.07.3.16.15.27l-3.18,2.33h0s2.79,2.78,2.79,2.78l-1.84,1.48-3.87-1.43h-.05s-.89.01-1.37-.53c-.27-.31-.37-.76-.3-1.32l-.51-.07c-.1.73.04,1.31.42,1.74.56.63,1.44.7,1.7.7-.51.27-1.1.81-1.09,1.86,0,.33.09.61.23.85.88.49,1.86.82,2.91.93.28.03.57.05.87.05,1.66,0,3.2-.52,4.46-1.42,1.98-1.4,3.27-3.71,3.27-6.31C15.73,3.73,12.27.27,8,.27M11.19,4.24c-.35,0-.74.39-.74.74,0,.05-.04.09-.09.09s-.09-.04-.09-.09c0-.35-.39-.74-.74-.74-.05,0-.09-.04-.09-.09s.04-.09.09-.09c.35,0,.74-.39.74-.74,0-.05.04-.09.09-.09s.09.04.09.09c0,.35.39.74.74.74.05,0,.09.04.09.09s-.04.09-.09.09M13.72,8.66c-.51,0-1.06.56-1.06,1.06,0,.07-.06.13-.13.13s-.13-.06-.13-.13c0-.51-.56-1.06-1.06-1.06-.07,0-.13-.06-.13-.13s.06-.13.13-.13c.51,0,1.06-.56,1.06-1.06,0-.07.06-.13.13-.13s.13.06.13.13c0,.51.56,1.06,1.06,1.06.07,0,.13.06.13.13s-.06.13-.13.13"/>
  <path class="cls-2" d="M11.19,4.05c-.35,0-.74-.39-.74-.74,0-.05-.04-.09-.09-.09s-.09.04-.09.09c0,.35-.39.74-.74.74-.05,0-.09.04-.09.09s.04.09.09.09c.35,0,.74.39.74.74,0,.05.04.09.09.09s.09-.04.09-.09c0-.35.39-.74.74-.74.05,0,.09-.04.09-.09s-.04-.09-.09-.09"/>
  <path class="cls-2" d="M13.72,8.39c-.51,0-1.06-.56-1.06-1.06,0-.07-.06-.13-.13-.13s-.13.06-.13.13c0,.51-.56,1.06-1.06,1.06-.07,0-.13.06-.13.13s.06.13.13.13c.51,0,1.06.56,1.06,1.06,0,.07.06.13.13.13s.13-.06.13-.13c0-.51.56-1.06,1.06-1.06.07,0,.13-.06.13-.13s-.06-.13-.13-.13"/>
  <path class="cls-1" d="M5.09,12.04c-.26,0-1.14-.08-1.7-.7-.38-.43-.52-1.01-.42-1.74l.51.07c-.08.57.02,1.01.3,1.32.48.54,1.36.53,1.37.53h.05s3.87,1.42,3.87,1.42l1.84-1.48-2.79-2.78h0s3.18-2.33,3.18-2.33c.15-.11.02-.34-.15-.27l-3.92,1.7h0s-.16-.16-.16-.16l.61-1.73s-.71.23-1.76.67c-1.99-1.51-3.49-1.46-5.24-1.06-.16.46-.27.95-.34,1.45.1-.02.19-.04.29-.06,1.31-.32,2.38-.58,3.87.32-.32.15-.64.32-.98.5-.88-.19-1.76-.01-2.84.32-.13.04-.27.08-.41.11,0,.46.06.9.14,1.33.01.07.03.15.05.22.05.22.11.44.18.66.14.43.31.84.52,1.24.7,1.33,1.77,2.43,3.08,3.16-.14-.24-.22-.52-.23-.85,0-1.05.58-1.59,1.09-1.86"/>
</svg>